<svg width="23" height="16" viewBox="0 0 23 16" fill="none" xmlns="http://www.w3.org/2000/svg">
<rect width="1.14109" height="12.9601" transform="matrix(-1 0 0 1 5.84863 0.275146)" fill="#359AD6"/>
<rect width="1.14109" height="2.59202" transform="matrix(-1 0 0 1 18.9707 3.21289)" fill="#359AD6"/>
<rect width="1.14109" height="12.9601" transform="matrix(-1 0 0 1 2.42383 0.275146)" fill="#359AD6"/>
<rect width="5.84808" height="1.38241" transform="matrix(-1 0 0 1 5.84863 6.84167)" fill="#359AD6"/>
<rect width="10.1003" height="1.34361" transform="matrix(-0.874208 0.485552 0.353936 0.93527 13.6543 2.35046)" fill="#359AD6"/>
<rect width="10.6907" height="1.34361" transform="matrix(0.874208 0.485552 -0.353936 0.93527 13.6543 2.34888)" fill="#359AD6"/>
<path d="M8.6885 13.3433C7.91256 13.3433 7.1138 12.8127 7.1138 11.8028C7.1138 10.793 7.91256 10.2624 8.6885 10.2624C9.46445 10.2624 10.2632 10.793 10.2632 11.8028C10.2632 12.8127 9.46445 13.3433 8.6885 13.3433ZM7.98673 11.8028C7.98673 12.2593 8.30624 12.5445 8.6885 12.5445C9.07077 12.5445 9.39027 12.2593 9.39027 11.8028C9.39027 11.3464 9.07077 11.0611 8.6885 11.0611C8.30624 11.0611 7.98673 11.3464 7.98673 11.8028ZM12.5152 13.2863V11.6089C12.5152 11.2323 12.3098 11.0497 12.0416 11.0497C11.762 11.0497 11.5395 11.2323 11.5395 11.6089V13.2863H10.6552V10.3194H11.5395V10.6846C11.6993 10.4392 11.9731 10.2624 12.3668 10.2624C12.7149 10.2624 13.0172 10.4107 13.2055 10.7302C13.3881 10.4621 13.7076 10.2624 14.1755 10.2624C14.8031 10.2624 15.2595 10.6617 15.2595 11.5746V13.2863H14.3751V11.6089C14.3751 11.2323 14.1697 11.0497 13.9016 11.0497C13.6163 11.0497 13.3995 11.2323 13.3995 11.6089V13.2863H12.5152ZM17.2185 13.3433C16.397 13.3433 15.6553 12.7842 15.6553 11.8085C15.6553 10.8044 16.4027 10.2624 17.1672 10.2624C17.9203 10.2624 18.8047 10.7873 18.6164 12.1452H16.5054C16.6252 12.4647 16.9219 12.6244 17.3155 12.6244C17.578 12.6244 17.8119 12.5617 18.0287 12.3962L18.4281 12.8127C18.1828 13.1208 17.7606 13.3433 17.2185 13.3433ZM16.4882 11.5119H17.8404C17.7777 11.1695 17.4753 11.0041 17.1786 11.0041C16.8819 11.0041 16.5852 11.1581 16.4882 11.5119ZM19.4099 14.3703L19.9006 13.252L18.6682 10.3194H19.5697L20.3228 12.2479L21.0759 10.3194H21.9774L20.7336 13.2863L20.2771 14.3703H19.4099Z" fill="#359AD6"/>
</svg>
