<svg width="158" height="90" viewBox="0 0 158 90" fill="none" xmlns="http://www.w3.org/2000/svg">
<rect width="7.83875" height="73.4882" transform="matrix(-1 0 0 1 40.1738 0)" fill="#359AD6"/>
<rect width="7.83875" height="14.6976" transform="matrix(-1 0 0 1 130.319 16.6572)" fill="#359AD6"/>
<rect width="7.83875" height="73.4882" transform="matrix(-1 0 0 1 16.6572 0)" fill="#359AD6"/>
<rect width="40.1736" height="7.83875" transform="matrix(-1 0 0 1 40.1738 37.2339)" fill="#359AD6"/>
<rect width="66.7274" height="7.83875" transform="matrix(-0.90902 0.416752 0.416752 0.90902 93.8018 11.7686)" fill="#359AD6"/>
<rect x="93.7983" y="11.7583" width="70.6274" height="7.83875" transform="rotate(24.6297 93.7983 11.7583)" fill="#359AD6"/>
<path d="M57.2232 73.808C51.8928 73.808 46.4057 70.1629 46.4057 63.2256C46.4057 56.2884 51.8928 52.6433 57.2232 52.6433C62.5535 52.6433 68.0407 56.2884 68.0407 63.2256C68.0407 70.1629 62.5535 73.808 57.2232 73.808ZM52.4024 63.2256C52.4024 66.3611 54.5972 68.3208 57.2232 68.3208C59.8492 68.3208 62.044 66.3611 62.044 63.2256C62.044 60.0902 59.8492 58.1305 57.2232 58.1305C54.5972 58.1305 52.4024 60.0902 52.4024 63.2256ZM85.0783 73.416V61.8931C85.0783 59.3063 83.6673 58.0521 81.8252 58.0521C79.9047 58.0521 78.3762 59.3063 78.3762 61.8931V73.416H72.3011V53.0353H78.3762V55.5437C79.4736 53.8583 81.3549 52.6433 84.0592 52.6433C86.4501 52.6433 88.5273 53.6624 89.8207 55.8572C91.0749 54.0151 93.2698 52.6433 96.4837 52.6433C100.795 52.6433 103.93 55.3869 103.93 61.6579V73.416H97.8554V61.8931C97.8554 59.3063 96.4445 58.0521 94.6024 58.0521C92.6427 58.0521 91.1533 59.3063 91.1533 61.8931V73.416H85.0783ZM118.956 73.808C113.312 73.808 108.217 69.967 108.217 63.2648C108.217 56.3667 113.351 52.6433 118.603 52.6433C123.777 52.6433 129.852 56.2492 128.559 65.5773H114.057C114.88 67.7721 116.918 68.8695 119.622 68.8695C121.425 68.8695 123.032 68.4384 124.522 67.3018L127.265 70.1629C125.58 72.2794 122.679 73.808 118.956 73.808ZM113.939 61.2268H123.228C122.797 58.8751 120.72 57.7385 118.682 57.7385C116.644 57.7385 114.606 58.7968 113.939 61.2268ZM135.578 80.8628L138.948 73.1809L130.482 53.0353H136.675L141.849 66.2828L147.022 53.0353H153.215L144.67 73.416L141.535 80.8628H135.578Z" fill="#359AD6"/>
</svg>
