<svg width="256" height="146" viewBox="0 0 256 146" fill="none" xmlns="http://www.w3.org/2000/svg">
<rect width="12.7007" height="119.069" transform="matrix(-1 0 0 1 65.0913 2.28882e-05)" fill="white"/>
<rect width="12.7007" height="23.8138" transform="matrix(-1 0 0 1 211.149 26.9889)" fill="white"/>
<rect width="12.7007" height="119.069" transform="matrix(-1 0 0 1 26.9888 2.28882e-05)" fill="white"/>
<rect width="65.0912" height="12.7007" transform="matrix(-1 0 0 1 65.0913 60.3283)" fill="white"/>
<rect width="108.115" height="12.7007" transform="matrix(-0.90902 0.416752 0.416752 0.90902 151.982 19.0678)" fill="white"/>
<rect x="151.977" y="19.0512" width="114.434" height="12.7007" transform="rotate(24.6297 151.977 19.0512)" fill="white"/>
<path d="M92.7161 120.675C84.0796 120.675 75.1891 114.769 75.1891 103.529C75.1891 92.2892 84.0796 86.3834 92.7161 86.3834C101.353 86.3834 110.243 92.2892 110.243 103.529C110.243 114.769 101.353 120.675 92.7161 120.675ZM84.9051 103.529C84.9051 108.61 88.4613 111.785 92.7161 111.785C96.9708 111.785 100.527 108.61 100.527 103.529C100.527 98.4491 96.9708 95.2739 92.7161 95.2739C88.4613 95.2739 84.9051 98.4491 84.9051 103.529ZM137.848 120.04V101.37C137.848 97.179 135.562 95.1469 132.577 95.1469C129.466 95.1469 126.989 97.179 126.989 101.37V120.04H117.146V87.0184H126.989V91.0826C128.767 88.352 131.815 86.3834 136.197 86.3834C140.071 86.3834 143.437 88.0345 145.532 91.5907C147.564 88.606 151.12 86.3834 156.328 86.3834C163.313 86.3834 168.393 90.8286 168.393 100.989V120.04H158.55V101.37C158.55 97.179 156.264 95.1469 153.28 95.1469C150.104 95.1469 147.691 97.179 147.691 101.37V120.04H137.848ZM192.739 120.675C183.594 120.675 175.339 114.452 175.339 103.593C175.339 92.4162 183.658 86.3834 192.167 86.3834C200.55 86.3834 210.393 92.2257 208.297 107.34H184.801C186.134 110.896 189.436 112.674 193.818 112.674C196.739 112.674 199.343 111.975 201.756 110.134L206.201 114.769C203.471 118.199 198.771 120.675 192.739 120.675ZM184.61 100.291H199.661C198.962 96.4805 195.596 94.6389 192.294 94.6389C188.992 94.6389 185.69 96.3534 184.61 100.291ZM219.67 132.106L225.131 119.659L211.414 87.0184H221.448L229.83 108.483L238.213 87.0184H248.246L234.402 120.04L229.322 132.106H219.67Z" fill="white"/>
</svg>
